{"asset":{"version":"2.0","generator":"pv2gltf","copyright":""},"samplers":[{"magFilter":9729,"minFilter":9986,"wrapS":10497,"wrapT":10497}],"materials":[{"name":"__pv_default_material_0__","pbrMetallicRoughness":{"baseColorFactor":[0.6800000071525574,0.6800000071525574,0.6800000071525574,1.0],"metallicFactor":0.5,"roughnessFactor":0.5},"doubleSided":true}],"buffers":[{"uri":"87371281_1927534524049115_343294519766155264_n.bin","byteLength":54432}],"bufferViews":[{"buffer":0,"byteOffset":0,"byteLength":43680,"byteStride":12,"target":34962},{"buffer":0,"byteOffset":43680,"byteLength":10752,"target":34963}],"accessors":[{"bufferView":0,"byteOffset":0,"componentType":5126,"count":1820,"type":"VEC3","min":[-0.010080900974571705,-0.0073320502415299419,0.0],"max":[0.009919119998812676,0.007213400211185217,0.0010000000474974514]},{"bufferView":0,"byteOffset":21840,"componentType":5126,"count":1820,"type":"VEC3"},{"bufferView":1,"byteOffset":0,"componentType":5123,"count":5376,"type":"SCALAR"}],"meshes":[{"name":"87371281_1927534524049115_343294519766155264_n","primitives":[{"attributes":{"NORMAL":1,"POSITION":0},"indices":2,"mode":4,"material":0}]}],"nodes":[{"name":"87371281_1927534524049115_343294519766155264_n","mesh":0}],"scenes":[{"nodes":[0]}],"scene":0}