{"asset":{"version":"2.0","generator":"pv2gltf","copyright":""},"samplers":[{"magFilter":9729,"minFilter":9986,"wrapS":10497,"wrapT":10497}],"materials":[{"name":"__pv_default_material_0__","pbrMetallicRoughness":{"baseColorFactor":[0.6800000071525574,0.6800000071525574,0.6800000071525574,1.0],"metallicFactor":0.5,"roughnessFactor":0.5},"doubleSided":true}],"buffers":[{"uri":"img16.bin","byteLength":61152}],"bufferViews":[{"buffer":0,"byteOffset":0,"byteLength":49200,"byteStride":12,"target":34962},{"buffer":0,"byteOffset":49200,"byteLength":11952,"target":34963}],"accessors":[{"bufferView":0,"byteOffset":0,"componentType":5126,"count":2050,"type":"VEC3","min":[-0.011214000172913075,-0.00839999970048666,0.0],"max":[0.011034000664949417,0.008264060132205487,0.0010000000474974514]},{"bufferView":0,"byteOffset":24600,"componentType":5126,"count":2050,"type":"VEC3"},{"bufferView":1,"byteOffset":0,"componentType":5123,"count":5976,"type":"SCALAR"}],"meshes":[{"name":"img16","primitives":[{"attributes":{"NORMAL":1,"POSITION":0},"indices":2,"mode":4,"material":0}]}],"nodes":[{"name":"img16","mesh":0}],"scenes":[{"nodes":[0]}],"scene":0}