{"asset":{"version":"2.0","generator":"pv2gltf","copyright":""},"samplers":[{"magFilter":9729,"minFilter":9986,"wrapS":10497,"wrapT":10497}],"materials":[{"name":"__pv_default_material_0__","pbrMetallicRoughness":{"baseColorFactor":[0.6800000071525574,0.6800000071525574,0.6800000071525574,1.0],"metallicFactor":0.5,"roughnessFactor":0.5},"doubleSided":true}],"buffers":[{"uri":"87515354_236882084004281_9205009539835887616_n.bin","byteLength":39912}],"bufferViews":[{"buffer":0,"byteOffset":0,"byteLength":32160,"byteStride":12,"target":34962},{"buffer":0,"byteOffset":32160,"byteLength":7752,"target":34963}],"accessors":[{"bufferView":0,"byteOffset":0,"componentType":5126,"count":1340,"type":"VEC3","min":[-0.010083500295877457,-0.0073320502415299419,0.0],"max":[0.009916500188410283,0.007213400211185217,0.0010000000474974514]},{"bufferView":0,"byteOffset":16080,"componentType":5126,"count":1340,"type":"VEC3"},{"bufferView":1,"byteOffset":0,"componentType":5123,"count":3876,"type":"SCALAR"}],"meshes":[{"name":"87515354_236882084004281_9205009539835887616_n","primitives":[{"attributes":{"NORMAL":1,"POSITION":0},"indices":2,"mode":4,"material":0}]}],"nodes":[{"name":"87515354_236882084004281_9205009539835887616_n","mesh":0}],"scenes":[{"nodes":[0]}],"scene":0}