{"asset":{"version":"2.0","generator":"pv2gltf","copyright":""},"samplers":[{"magFilter":9729,"minFilter":9986,"wrapS":10497,"wrapT":10497}],"materials":[{"name":"__pv_default_material_0__","pbrMetallicRoughness":{"baseColorFactor":[0.6800000071525574,0.6800000071525574,0.6800000071525574,1.0],"metallicFactor":0.5,"roughnessFactor":0.5},"doubleSided":true}],"buffers":[{"uri":"87482850_203222684256240_3865441936148004864_n.bin","byteLength":62736}],"bufferViews":[{"buffer":0,"byteOffset":0,"byteLength":50592,"byteStride":12,"target":34962},{"buffer":0,"byteOffset":50592,"byteLength":12144,"target":34963}],"accessors":[{"bufferView":0,"byteOffset":0,"componentType":5126,"count":2108,"type":"VEC3","min":[-0.010080900974571705,-0.0073320502415299419,0.0],"max":[0.009919119998812676,0.007213400211185217,0.0010000000474974514]},{"bufferView":0,"byteOffset":25296,"componentType":5126,"count":2108,"type":"VEC3"},{"bufferView":1,"byteOffset":0,"componentType":5123,"count":6072,"type":"SCALAR"}],"meshes":[{"name":"87482850_203222684256240_3865441936148004864_n","primitives":[{"attributes":{"NORMAL":1,"POSITION":0},"indices":2,"mode":4,"material":0}]}],"nodes":[{"name":"87482850_203222684256240_3865441936148004864_n","mesh":0}],"scenes":[{"nodes":[0]}],"scene":0}