{"asset":{"version":"2.0","generator":"pv2gltf","copyright":""},"samplers":[{"magFilter":9729,"minFilter":9986,"wrapS":10497,"wrapT":10497}],"materials":[{"name":"__pv_default_material_0__","pbrMetallicRoughness":{"baseColorFactor":[0.6800000071525574,0.6800000071525574,0.6800000071525574,1.0],"metallicFactor":0.5,"roughnessFactor":0.5},"doubleSided":true}],"buffers":[{"uri":"Delongh_ ESAM_2600_OBJ.bin","byteLength":6968688}],"bufferViews":[{"buffer":0,"byteOffset":0,"byteLength":1572864,"byteStride":12,"target":34962},{"buffer":0,"byteOffset":1572864,"byteLength":524288,"byteStride":8,"target":34962},{"buffer":0,"byteOffset":2097152,"byteLength":576308,"target":34963},{"buffer":0,"byteOffset":2673460,"byteLength":1572864,"byteStride":12,"target":34962},{"buffer":0,"byteOffset":4246324,"byteLength":524288,"byteStride":8,"target":34962},{"buffer":0,"byteOffset":4770612,"byteLength":609812,"target":34963},{"buffer":0,"byteOffset":5380424,"byteLength":880464,"byteStride":12,"target":34962},{"buffer":0,"byteOffset":6260888,"byteLength":293488,"byteStride":8,"target":34962},{"buffer":0,"byteOffset":6554376,"byteLength":414312,"target":34963}],"accessors":[{"bufferView":0,"byteOffset":0,"componentType":5126,"count":65536,"type":"VEC3","min":[-297.2715148925781,0.00019999999494757503,-184.17080688476563],"max":[144.4810028076172,357.9526062011719,184.17030334472657]},{"bufferView":0,"byteOffset":786432,"componentType":5126,"count":65536,"type":"VEC3"},{"bufferView":1,"byteOffset":0,"componentType":5126,"count":65536,"type":"VEC2"},{"bufferView":2,"byteOffset":0,"componentType":5123,"count":288153,"type":"SCALAR"},{"bufferView":3,"byteOffset":0,"componentType":5126,"count":65536,"type":"VEC3","min":[-285.6482849121094,-0.00019999999494757503,-183.6916961669922],"max":[142.54029846191407,355.6329040527344,184.17030334472657]},{"bufferView":3,"byteOffset":786432,"componentType":5126,"count":65536,"type":"VEC3"},{"bufferView":4,"byteOffset":0,"componentType":5126,"count":65536,"type":"VEC2"},{"bufferView":5,"byteOffset":0,"componentType":5123,"count":304905,"type":"SCALAR"},{"bufferView":6,"byteOffset":0,"componentType":5126,"count":36686,"type":"VEC3","min":[-304.32470703125,-0.00019999999494757503,-183.30479431152345],"max":[141.46600341796876,350.4154052734375,177.38580322265626]},{"bufferView":6,"byteOffset":440232,"componentType":5126,"count":36686,"type":"VEC3"},{"bufferView":7,"byteOffset":0,"componentType":5126,"count":36686,"type":"VEC2"},{"bufferView":8,"byteOffset":0,"componentType":5123,"count":207156,"type":"SCALAR"}],"meshes":[{"name":"Delongh_ ESAM_2600_OBJ","primitives":[{"attributes":{"NORMAL":1,"POSITION":0,"TEXCOORD_0":2},"indices":3,"mode":4,"material":0},{"attributes":{"NORMAL":5,"POSITION":4,"TEXCOORD_0":6},"indices":7,"mode":4,"material":0},{"attributes":{"NORMAL":9,"POSITION":8,"TEXCOORD_0":10},"indices":11,"mode":4,"material":0}]}],"nodes":[{"name":"Delongh_ ESAM_2600_OBJ","mesh":0}],"scenes":[{"nodes":[0]}],"scene":0}